<?xml version="1.0" encoding="UTF-8" standalone="no"?>
<svg
   xmlns:dc="http://purl.org/dc/elements/1.1/"
   xmlns:cc="http://creativecommons.org/ns#"
   xmlns:rdf="http://www.w3.org/1999/02/22-rdf-syntax-ns#"
   xmlns:svg="http://www.w3.org/2000/svg"
   xmlns="http://www.w3.org/2000/svg"
   xmlns:sodipodi="http://sodipodi.sourceforge.net/DTD/sodipodi-0.dtd"
   xmlns:inkscape="http://www.inkscape.org/namespaces/inkscape"
   viewBox="0 0 522 103.23"
   version="1.1"
   id="svg46"
   sodipodi:docname="h-blue-orange.svg"
   inkscape:version="0.92.2 5c3e80d, 2017-08-06"
   inkscape:export-filename="/Users/jonny/Desktop/h-blue-orange.png"
   inkscape:export-xdpi="96"
   inkscape:export-ydpi="96">
  <metadata
     id="metadata50">
    <rdf:RDF>
      <cc:Work
         rdf:about="">
        <dc:format>image/svg+xml</dc:format>
        <dc:type
           rdf:resource="http://purl.org/dc/dcmitype/StillImage" />
        <dc:title>h-darkgrey-orange</dc:title>
      </cc:Work>
    </rdf:RDF>
  </metadata>
  <sodipodi:namedview
     pagecolor="#ffffff"
     bordercolor="#666666"
     borderopacity="1"
     objecttolerance="10"
     gridtolerance="10"
     guidetolerance="10"
     inkscape:pageopacity="0"
     inkscape:pageshadow="2"
     inkscape:window-width="1335"
     inkscape:window-height="866"
     id="namedview48"
     showgrid="false"
     inkscape:zoom="1.1034483"
     inkscape:cx="370.05469"
     inkscape:cy="51.615002"
     inkscape:window-x="2037"
     inkscape:window-y="104"
     inkscape:window-maximized="0"
     inkscape:current-layer="layer1"
     inkscape:pagecheckerboard="true" />
  <defs
     id="defs4">
    <style
       id="style2">.cls-1{fill:#6d7277;}.cls-2{font-size:9.34px;fill:#8f9299;font-family:MyriadPro-Regular, Myriad Pro;}.cls-3{fill:#ffa506;}</style>
    <style
       id="style3841">.cls-1{fill:#6bbcf2;}.cls-2,.cls-3{fill:#fff;}.cls-3{font-size:6.96px;font-family:MyriadPro-Regular, Myriad Pro;}.cls-4{opacity:0.4;}</style>
  </defs>
  <title
     id="title6">h-darkgrey-orange</title>
  <g
     inkscape:groupmode="layer"
     id="layer1"
     inkscape:label="Layer 1"
     style="display:inline"
     sodipodi:insensitive="true">
    <g
       id="Layer_2"
       data-name="Layer 2">
      <g
         id="Final">
        <path
           class="cls-1"
           d="m 160.94,54.8 v 11 c 0,6.58 -4.47,13.66 -17.07,13.66 -12.84,0 -17.39,-7.16 -17.39,-13.9 0,-3 1.22,-12.77 17.47,-12.77 a 50,50 0 0 1 7.16,0.57 c 0,-4.39 -2.28,-7.64 -8.62,-7.64 a 31.81,31.81 0 0 0 -11.87,2 v -7.87 a 32.85,32.85 0 0 1 12.44,-2.28 c 11.54,0 17.88,6.1 17.88,17.23 z m -9.75,4.72 a 41.05,41.05 0 0 0 -5.85,-0.49 c -6.59,0 -9.19,1.95 -9.19,5.29 0,4.22 2.52,6.5 7.64,6.5 5.45,0 7.4,-2.44 7.4,-6.18 z"
           id="path8"
           inkscape:connector-curvature="0"
           style="fill:#6bbcf2;fill-opacity:1" />
        <path
           class="cls-1"
           d="M 187.77,37.57 V 46 a 40.65,40.65 0 0 0 -10.49,1.39 v 31.4 h -9.75 V 41.88 a 54.71,54.71 0 0 1 20.24,-4.31 z"
           id="path10"
           inkscape:connector-curvature="0"
           style="fill:#6bbcf2;fill-opacity:1" />
        <path
           class="cls-1"
           d="M 193.14,78.79 V 37.44 h 9.75 v 41.35 z"
           id="path12"
           inkscape:connector-curvature="0"
           style="fill:#6bbcf2;fill-opacity:1" />
        <path
           class="cls-1"
           d="m 225.13,45.82 v 20.77 c 0,3.58 1.38,4.47 5,4.47 a 11.25,11.25 0 0 0 4.64,-0.89 v 8 a 16.56,16.56 0 0 1 -6.43,1.22 c -8.05,0 -12.92,-5 -12.92,-13.42 V 45.82 h -6.83 v -8.38 h 6.83 V 23.1 h 9.75 v 14.34 h 9.6 v 8.38 z"
           id="path14"
           inkscape:connector-curvature="0"
           style="fill:#6bbcf2;fill-opacity:1" />
        <path
           class="cls-1"
           d="m 277.9,54.4 v 24.39 h -9.67 v -25.2 c 0,-3.58 -0.81,-7.4 -9.92,-7.4 a 16,16 0 0 0 -6.5,1.22 v 31.38 h -9.76 v -56 h 9.76 V 39 a 22.14,22.14 0 0 1 8.13,-1.38 c 11.3,-0.05 17.96,6.21 17.96,16.78 z"
           id="path16"
           inkscape:connector-curvature="0"
           style="fill:#6bbcf2;fill-opacity:1" />
        <path
           class="cls-1"
           d="m 346.1,54.4 v 24.39 h -9.76 v -25 c 0,-4.72 -1.54,-7.89 -9.27,-7.89 a 35.64,35.64 0 0 0 -8.29,1 c 0,0 1.71,1.95 1.71,7.56 v 24.33 h -9.67 V 53.5 c 0,-4.47 -1.55,-7.48 -9.11,-7.48 a 34.26,34.26 0 0 0 -6.75,0.66 v 32.11 h -9.75 V 42.12 a 39.68,39.68 0 0 1 17.88,-4.55 19.06,19.06 0 0 1 11,3 39.58,39.58 0 0 1 14.63,-3 c 10.87,0 17.38,6.26 17.38,16.83 z"
           id="path18"
           inkscape:connector-curvature="0"
           style="fill:#6bbcf2;fill-opacity:1" />
        <path
           class="cls-1"
           d="m 385.72,67.89 v 7.89 a 31.6,31.6 0 0 1 -15.28,3.66 c -8.05,0 -18.86,-3.25 -18.86,-20.49 0,-12.11 4.88,-21.46 18.13,-21.46 12.68,0 18.13,9.51 18.13,19.67 a 48.27,48.27 0 0 1 -0.17,5 h -26.09 c 0.57,7.81 5.61,8.86 10.32,8.86 a 31.74,31.74 0 0 0 13.82,-3.13 z M 361.58,55.46 h 16.34 c -0.49,-5.13 -3,-10 -8.21,-10 -4.8,0 -7.56,2.76 -8.13,10 z"
           id="path20"
           inkscape:connector-curvature="0"
           style="fill:#6bbcf2;fill-opacity:1" />
        <path
           class="cls-1"
           d="m 407.24,45.82 v 20.77 c 0,3.58 1.38,4.47 5,4.47 a 11.17,11.17 0 0 0 4.63,-0.89 v 8 a 16.47,16.47 0 0 1 -6.42,1.22 c -8.05,0 -12.92,-5 -12.92,-13.42 V 45.82 h -6.83 v -8.38 h 6.83 V 23.21 h 9.75 v 14.23 h 9.59 v 8.38 z"
           id="path22"
           inkscape:connector-curvature="0"
           style="fill:#6bbcf2;fill-opacity:1" />
        <path
           class="cls-1"
           d="M 424.1,78.79 V 37.44 h 9.75 v 41.35 z"
           id="path24"
           inkscape:connector-curvature="0"
           style="fill:#6bbcf2;fill-opacity:1" />
        <path
           class="cls-1"
           d="m 460.31,71.06 a 26.52,26.52 0 0 0 10.08,-2 v 8.13 a 31.68,31.68 0 0 1 -11.71,2.28 c -12.35,0 -19.18,-7.4 -19.18,-20.9 0,-13.5 6.83,-21 19.18,-21 a 31.48,31.48 0 0 1 11.71,2.28 V 48 a 26.51,26.51 0 0 0 -10.08,-2 c -6.83,0 -11.06,2 -11.06,12.52 0,10.52 4.23,12.54 11.06,12.54 z"
           id="path26"
           inkscape:connector-curvature="0"
           style="fill:#6bbcf2;fill-opacity:1" />
        <path
           class="cls-1"
           d="m 509.83,54.8 v 11 c 0,6.58 -4.47,13.66 -17.07,13.66 -12.85,0 -17.4,-7.16 -17.4,-13.9 0,-3 1.22,-12.77 17.48,-12.77 a 49.69,49.69 0 0 1 7.15,0.57 c 0,-4.39 -2.28,-7.64 -8.62,-7.64 a 31.85,31.85 0 0 0 -11.87,2 v -7.87 a 32.85,32.85 0 0 1 12.44,-2.28 c 11.55,0 17.89,6.1 17.89,17.23 z m -9.76,4.72 a 41.05,41.05 0 0 0 -5.85,-0.49 C 487.63,59 485,61 485,64.32 c 0,4.22 2.52,6.5 7.64,6.5 5.45,0 7.4,-2.44 7.4,-6.18 z"
           id="path28"
           inkscape:connector-curvature="0"
           style="fill:#6bbcf2;fill-opacity:1" />
        <circle
           class="cls-1"
           cx="198.02"
           cy="28.059999"
           r="5.5"
           id="circle30"
           style="fill:#6bbcf2;fill-opacity:1" />
        <circle
           class="cls-1"
           cx="428.98001"
           cy="28.059999"
           r="5.5"
           id="circle32"
           style="fill:#6bbcf2;fill-opacity:1" />
        <path
           class="cls-1"
           d="m 56,0 a 10.61,10.61 0 0 0 -7.49,3.11 l -15.44,15.48 14,14 L 37,42.71 14,65.63 v 0 0 l 3.5,3.5 v 0 l 21,21 v 0 l 3.5,3.5 v 0 l 7,7 a 10.57,10.57 0 0 0 14.38,-0.57 L 78.88,84.63 65,70.72 98,37.66 v -0.07 0 L 62.95,2.59 A 10.52,10.52 0 0 0 56,0 Z M 40.46,46.21 50.58,36.1 l 21,21 -10.11,10.12 z"
           id="path36"
           inkscape:connector-curvature="0"
           style="fill:#6bbcf2;fill-opacity:1" />
        <path
           class="cls-3"
           d="m 30.26,36 v 0.05 a 10.61,10.61 0 0 0 -15,0.35 v 0 L 0,51.66 l 10.47,10.47 23,-22.92 z"
           id="path38"
           inkscape:connector-curvature="0"
           style="fill:#ffa506" />
        <path
           class="cls-3"
           d="m 81.69,67.21 v 0 a 10.62,10.62 0 0 0 15,-0.36 v 0 L 112,51.56 101.48,41.09 78.49,64 Z"
           id="path40"
           inkscape:connector-curvature="0"
           style="fill:#ffa506" />
        <path
           class="cls-3"
           d="M 101.38,82.08 A 10.58,10.58 0 1 0 112,92.65 10.58,10.58 0 0 0 101.38,82.08 Z m 0,16.07 a 5.5,5.5 0 1 1 5.5,-5.5 5.5,5.5 0 0 1 -5.5,5.5 z"
           id="path42"
           inkscape:connector-curvature="0"
           style="fill:#ffa506" />
      </g>
    </g>
  </g>
</svg>
