<svg width="182" height="39" viewBox="0 0 182 39" fill="none" xmlns="http://www.w3.org/2000/svg">
<path fill-rule="evenodd" clip-rule="evenodd" d="M8 1H36C39.866 1 43 4.134 43 8V31C43 34.866 39.866 38 36 38H8C4.13403 38 1 34.866 1 31V8C1 4.134 4.13403 1 8 1ZM0 8C0 3.58173 3.58173 0 8 0H36C40.4183 0 44 3.58173 44 8V31C44 35.4183 40.4183 39 36 39H8C3.58173 39 0 35.4183 0 31V8ZM22.3259 6.23999C22.3259 8.07855 23.0762 8.07855 25.0937 8.07855C27.1111 8.07855 27.9846 8.75272 27.9846 10.4074C27.9846 10.8647 27.9547 11.2286 27.9244 11.5976C27.8932 11.977 27.8616 12.3617 27.8616 12.8589L27.7228 12.8109C26.2329 12.2955 25.7412 12.1254 24.7861 13.533C21.8338 17.8843 23.1254 19.6027 25.4628 21.7453C27.201 23.3387 29.4485 26.3417 25.9548 28.7931C25.5331 27.1648 22.921 24.2757 19.0644 20.0103C18.4214 19.2992 17.744 18.5499 17.0362 17.7617C16.7084 17.3967 16.3943 17.048 16.0941 16.7146L16.0875 16.7073L15.8676 16.4631C13.2596 18.6602 14.3364 20.397 15.8676 22.4807C18.0372 25.4335 17.8394 26.118 17.4284 27.5396C17.3617 27.7703 17.2894 28.0204 17.2207 28.3029H11.1314V27.0771C13.9845 26.9587 12.9316 25.3522 12.136 24.1381L12.054 24.0128C11.2545 22.7871 10.2088 20.7034 11.931 18.9874C13.3088 17.6146 14.7321 16.2908 15.2715 15.8006C10.5586 10.5512 9.87134 9.46289 12.8536 6.54642C13.7219 8.57941 16.4591 11.6198 18.8812 14.3103C19.8909 15.4318 20.8458 16.4924 21.5878 17.394C22.0798 15.9231 22.9409 13.962 24.1096 12.3686C20.5421 13.2266 18.8814 8.69141 22.3259 6.23999ZM32.9087 24.3806C33.5939 24.3806 34.1714 24.7035 34.6411 25.3495C35.1185 25.9876 35.3572 26.7736 35.3572 27.7075C35.3572 28.8515 35.0684 29.8515 34.491 30.7076C33.9212 31.5558 33.2552 31.98 32.4929 31.98C31.7769 31.98 31.1917 31.6492 30.7374 30.9877C30.2908 30.3262 30.0675 29.4741 30.0675 28.4312C30.0675 27.3417 30.3486 26.3962 30.9106 25.5946C31.4804 24.7852 32.1464 24.3806 32.9087 24.3806ZM32.3312 24.9642C31.9539 24.9642 31.6498 25.1627 31.4188 25.5596C31.1878 25.9487 31.0723 26.4662 31.0723 27.1122C31.0723 28.2639 31.2956 29.2834 31.7422 30.1706C31.9039 30.4819 32.1156 30.7387 32.3774 30.941C32.6469 31.1356 32.9164 31.2329 33.1859 31.2329C33.5709 31.2329 33.8788 31.0383 34.1099 30.6492C34.3408 30.2523 34.4563 29.7231 34.4563 29.0616C34.4563 28.4935 34.3793 27.9254 34.2253 27.3573C34.0714 26.7814 33.8635 26.2794 33.6017 25.8514C33.2321 25.2599 32.8086 24.9642 32.3312 24.9642Z" fill="white"/>
<path d="M13.125 26L10.9922 20.5508H4.125L2.01562 26H0L6.77344 8.79688H8.44922L15.1875 26H13.125ZM10.3711 18.7578L8.37891 13.4492C8.12109 12.7773 7.85547 11.9531 7.58203 10.9766C7.41016 11.7266 7.16406 12.5508 6.84375 13.4492L4.82812 18.7578H10.3711ZM23.1094 12.9219C23.6797 12.9219 24.1914 12.9688 24.6445 13.0625L24.375 14.8672C23.8438 14.75 23.375 14.6914 22.9688 14.6914C21.9297 14.6914 21.0391 15.1133 20.2969 15.957C19.5625 16.8008 19.1953 17.8516 19.1953 19.1094V26H17.25V13.1562H18.8555L19.0781 15.5352H19.1719C19.6484 14.6992 20.2227 14.0547 20.8945 13.6016C21.5664 13.1484 22.3047 12.9219 23.1094 12.9219ZM28.9922 26H27.0469V13.1562H28.9922V26ZM26.8828 9.67578C26.8828 9.23047 26.9922 8.90625 27.2109 8.70312C27.4297 8.49219 27.7031 8.38672 28.0312 8.38672C28.3438 8.38672 28.6133 8.49219 28.8398 8.70312C29.0664 8.91406 29.1797 9.23828 29.1797 9.67578C29.1797 10.1133 29.0664 10.4414 28.8398 10.6602C28.6133 10.8711 28.3438 10.9766 28.0312 10.9766C27.7031 10.9766 27.4297 10.8711 27.2109 10.6602C26.9922 10.4414 26.8828 10.1133 26.8828 9.67578ZM37.2656 24.6289C37.6094 24.6289 37.9414 24.6055 38.2617 24.5586C38.582 24.5039 38.8359 24.4492 39.0234 24.3945V25.8828C38.8125 25.9844 38.5 26.0664 38.0859 26.1289C37.6797 26.1992 37.3125 26.2344 36.9844 26.2344C34.5 26.2344 33.2578 24.9258 33.2578 22.3086V14.668H31.418V13.7305L33.2578 12.9219L34.0781 10.1797H35.2031V13.1562H38.9297V14.668H35.2031V22.2266C35.2031 23 35.3867 23.5938 35.7539 24.0078C36.1211 24.4219 36.625 24.6289 37.2656 24.6289ZM50.3906 26V17.6914C50.3906 16.6445 50.1523 15.8633 49.6758 15.3477C49.1992 14.832 48.4531 14.5742 47.4375 14.5742C46.0859 14.5742 45.0977 14.9414 44.4727 15.6758C43.8555 16.4102 43.5469 17.6133 43.5469 19.2852V26H41.6016V7.76562H43.5469V13.2852C43.5469 13.9492 43.5156 14.5 43.4531 14.9375H43.5703C43.9531 14.3203 44.4961 13.8359 45.1992 13.4844C45.9102 13.125 46.7188 12.9453 47.625 12.9453C49.1953 12.9453 50.3711 13.3203 51.1523 14.0703C51.9414 14.8125 52.3359 15.9961 52.3359 17.6211V26H50.3906ZM72.7148 26V17.6445C72.7148 16.6211 72.4961 15.8555 72.0586 15.3477C71.6211 14.832 70.9414 14.5742 70.0195 14.5742C68.8086 14.5742 67.9141 14.9219 67.3359 15.6172C66.7578 16.3125 66.4688 17.3828 66.4688 18.8281V26H64.5234V17.6445C64.5234 16.6211 64.3047 15.8555 63.8672 15.3477C63.4297 14.832 62.7461 14.5742 61.8164 14.5742C60.5977 14.5742 59.7031 14.9414 59.1328 15.6758C58.5703 16.4023 58.2891 17.5977 58.2891 19.2617V26H56.3438V13.1562H57.9258L58.2422 14.9141H58.3359C58.7031 14.2891 59.2188 13.8008 59.8828 13.4492C60.5547 13.0977 61.3047 12.9219 62.1328 12.9219C64.1406 12.9219 65.4531 13.6484 66.0703 15.1016H66.1641C66.5469 14.4297 67.1016 13.8984 67.8281 13.5078C68.5547 13.1172 69.3828 12.9219 70.3125 12.9219C71.7656 12.9219 72.8516 13.2969 73.5703 14.0469C74.2969 14.7891 74.6602 15.9805 74.6602 17.6211V26H72.7148ZM84.1055 26.2344C82.207 26.2344 80.707 25.6562 79.6055 24.5C78.5117 23.3438 77.9648 21.7383 77.9648 19.6836C77.9648 17.6133 78.4727 15.9688 79.4883 14.75C80.5117 13.5312 81.8828 12.9219 83.6016 12.9219C85.2109 12.9219 86.4844 13.4531 87.4219 14.5156C88.3594 15.5703 88.8281 16.9648 88.8281 18.6992V19.9297H79.9805C80.0195 21.4375 80.3984 22.582 81.1172 23.3633C81.8438 24.1445 82.8633 24.5352 84.1758 24.5352C85.5586 24.5352 86.9258 24.2461 88.2773 23.668V25.4023C87.5898 25.6992 86.9375 25.9102 86.3203 26.0352C85.7109 26.168 84.9727 26.2344 84.1055 26.2344ZM83.5781 14.5508C82.5469 14.5508 81.7227 14.8867 81.1055 15.5586C80.4961 16.2305 80.1367 17.1602 80.0273 18.3477H86.7422C86.7422 17.1211 86.4688 16.1836 85.9219 15.5352C85.375 14.8789 84.5938 14.5508 83.5781 14.5508ZM96.3047 24.6289C96.6484 24.6289 96.9805 24.6055 97.3008 24.5586C97.6211 24.5039 97.875 24.4492 98.0625 24.3945V25.8828C97.8516 25.9844 97.5391 26.0664 97.125 26.1289C96.7188 26.1992 96.3516 26.2344 96.0234 26.2344C93.5391 26.2344 92.2969 24.9258 92.2969 22.3086V14.668H90.457V13.7305L92.2969 12.9219L93.1172 10.1797H94.2422V13.1562H97.9688V14.668H94.2422V22.2266C94.2422 23 94.4258 23.5938 94.793 24.0078C95.1602 24.4219 95.6641 24.6289 96.3047 24.6289ZM102.586 26H100.641V13.1562H102.586V26ZM100.477 9.67578C100.477 9.23047 100.586 8.90625 100.805 8.70312C101.023 8.49219 101.297 8.38672 101.625 8.38672C101.938 8.38672 102.207 8.49219 102.434 8.70312C102.66 8.91406 102.773 9.23828 102.773 9.67578C102.773 10.1133 102.66 10.4414 102.434 10.6602C102.207 10.8711 101.938 10.9766 101.625 10.9766C101.297 10.9766 101.023 10.8711 100.805 10.6602C100.586 10.4414 100.477 10.1133 100.477 9.67578ZM111.844 26.2344C109.984 26.2344 108.543 25.6641 107.52 24.5234C106.504 23.375 105.996 21.7539 105.996 19.6602C105.996 17.5117 106.512 15.8516 107.543 14.6797C108.582 13.5078 110.059 12.9219 111.973 12.9219C112.59 12.9219 113.207 12.9883 113.824 13.1211C114.441 13.2539 114.926 13.4102 115.277 13.5898L114.68 15.2422C114.25 15.0703 113.781 14.9297 113.273 14.8203C112.766 14.7031 112.316 14.6445 111.926 14.6445C109.316 14.6445 108.012 16.3086 108.012 19.6367C108.012 21.2148 108.328 22.4258 108.961 23.2695C109.602 24.1133 110.547 24.5352 111.797 24.5352C112.867 24.5352 113.965 24.3047 115.09 23.8438V25.5664C114.23 26.0117 113.148 26.2344 111.844 26.2344ZM126.047 26L125.66 24.1719H125.566C124.926 24.9766 124.285 25.5234 123.645 25.8125C123.012 26.0938 122.219 26.2344 121.266 26.2344C119.992 26.2344 118.992 25.9062 118.266 25.25C117.547 24.5938 117.188 23.6602 117.188 22.4492C117.188 19.8555 119.262 18.4961 123.41 18.3711L125.59 18.3008V17.5039C125.59 16.4961 125.371 15.7539 124.934 15.2773C124.504 14.793 123.812 14.5508 122.859 14.5508C121.789 14.5508 120.578 14.8789 119.227 15.5352L118.629 14.0469C119.262 13.7031 119.953 13.4336 120.703 13.2383C121.461 13.043 122.219 12.9453 122.977 12.9453C124.508 12.9453 125.641 13.2852 126.375 13.9648C127.117 14.6445 127.488 15.7344 127.488 17.2344V26H126.047ZM121.652 24.6289C122.863 24.6289 123.812 24.2969 124.5 23.6328C125.195 22.9688 125.543 22.0391 125.543 20.8438V19.6836L123.598 19.7656C122.051 19.8203 120.934 20.0625 120.246 20.4922C119.566 20.9141 119.227 21.5742 119.227 22.4727C119.227 23.1758 119.438 23.7109 119.859 24.0781C120.289 24.4453 120.887 24.6289 121.652 24.6289Z" transform="translate(54 3)" fill="white"/>
</svg>
